<svg width="17" height="18" viewBox="0 0 17 18" fill="none" xmlns="http://www.w3.org/2000/svg">
<path d="M9.01802 2.69843C9.19135 2.02711 9.58302 1.43249 10.1314 1.00819C10.6797 0.583881 11.3536 0.353981 12.0469 0.354677H12.1251C12.2908 0.354677 12.4498 0.420525 12.567 0.537735C12.6842 0.654945 12.7501 0.813917 12.7501 0.979677C12.7501 1.14544 12.6842 1.30441 12.567 1.42162C12.4498 1.53883 12.2908 1.60468 12.1251 1.60468H12.0469C11.6312 1.60464 11.2273 1.74276 10.8986 1.99731C10.57 2.25186 10.3352 2.60842 10.2313 3.01093C10.1899 3.17151 10.0863 3.30905 9.94348 3.39329C9.80063 3.47754 9.63016 3.50159 9.46958 3.46015C9.309 3.41871 9.17146 3.31517 9.08722 3.17232C9.00297 3.02947 8.97892 2.85901 9.02036 2.69843H9.01802ZM16.4454 13.6039C16.3985 13.4968 16.3228 13.4048 16.2266 13.3383C14.9008 12.4273 14.6251 10.8734 14.6251 9.72968C14.6251 8.34921 15.6774 7.14686 16.3047 6.55233C16.3664 6.49393 16.4156 6.42355 16.4492 6.34551C16.4828 6.26746 16.5001 6.18339 16.5001 6.09843C16.5001 6.01346 16.4828 5.92939 16.4492 5.85135C16.4156 5.7733 16.3664 5.70293 16.3047 5.64452C15.3141 4.70936 13.6735 4.10468 12.1251 4.10468C11.0128 4.10567 9.92556 4.43536 9.00005 5.05233C7.92046 4.3284 6.62234 4.00327 5.32897 4.13288C4.0356 4.26249 2.82781 4.83873 1.91333 5.76249C1.36664 6.32061 0.937696 6.9829 0.651969 7.71004C0.366242 8.43717 0.229563 9.21431 0.250052 9.9953C0.280722 11.3135 0.573844 12.6124 1.11229 13.8161C1.65073 15.0197 2.42369 16.104 3.38599 17.0055C3.96552 17.553 4.73324 17.857 5.53052 17.8547H12.3805C12.8068 17.8555 13.2286 17.7687 13.62 17.5998C14.0113 17.4309 14.3638 17.1834 14.6555 16.8726C15.196 16.291 15.6635 15.6456 16.0477 14.9508C16.5961 13.9484 16.5258 13.7922 16.4454 13.6039Z" fill="white"/>
</svg>
