<svg width="17" height="19" viewBox="0 0 17 19" fill="none" xmlns="http://www.w3.org/2000/svg">
<path d="M15.736 8.27499L2.62503 0.773429C2.43389 0.66197 2.2166 0.603241 1.99534 0.603241C1.77408 0.603241 1.55679 0.66197 1.36565 0.773429C1.17734 0.881407 1.0211 1.03749 0.912931 1.22569C0.80476 1.41389 0.748541 1.62745 0.750029 1.84452V16.8648C0.749409 17.0817 0.806363 17.2948 0.915071 17.4824C1.02378 17.6701 1.18035 17.8255 1.36878 17.9328C1.55991 18.0443 1.77721 18.103 1.99847 18.103C2.21973 18.103 2.43702 18.0443 2.62815 17.9328L15.736 10.4328C15.9296 10.3267 16.0911 10.1705 16.2035 9.98053C16.316 9.79058 16.3754 9.57388 16.3754 9.35312C16.3754 9.13235 16.316 8.91565 16.2035 8.7257C16.0911 8.53575 15.9296 8.37954 15.736 8.27343V8.27499ZM9.50003 10.2383L10.9782 11.7164L4.06409 15.6742L9.50003 10.2383ZM4.06253 3.03437L10.9789 6.99296L9.50003 8.47109L4.06253 3.03437ZM12.1024 11.0734L10.3836 9.35468L12.1024 7.63593L15.1047 9.35468L12.1024 11.0734Z" fill="white"/>
</svg>
